<mxfile host="app.diagrams.net" agent="Mozilla/5.0 (X11; Linux x86_64; rv:133.0) Gecko/20100101 Firefox/133.0" version="26.0.5">
  <diagram name="Page-1" id="YhezpF31wJ6bJmdl2Y2Z">
    <mxGraphModel dx="1425" dy="790" grid="1" gridSize="10" guides="1" tooltips="1" connect="1" arrows="1" fold="1" page="1" pageScale="1" pageWidth="850" pageHeight="1100" math="1" shadow="0">
      <root>
        <mxCell id="0" />
        <mxCell id="1" parent="0" />
        <mxCell id="zriHwzO1Br6Wtj0x9han-155" value="&lt;div&gt;&lt;font style=&quot;font-size: 12px;&quot;&gt;Traffic volume at &lt;/font&gt;&lt;/div&gt;&lt;font style=&quot;font-size: 12px;&quot;&gt;node i at timestep j&lt;/font&gt;" style="text;html=1;align=center;verticalAlign=middle;whiteSpace=wrap;rounded=0;fontSize=11;" parent="1" vertex="1">
          <mxGeometry x="170" y="60" width="147" height="30" as="geometry" />
        </mxCell>
        <mxCell id="zriHwzO1Br6Wtj0x9han-156" value="" style="html=1;verticalLabelPosition=bottom;labelBackgroundColor=#ffffff;verticalAlign=top;shadow=0;dashed=0;strokeWidth=1;shape=mxgraph.ios7ui.iconGrid;fillColor=#dae8fc;gridSize=3,3;strokeColor=#6c8ebf;fontSize=11;" parent="1" vertex="1">
          <mxGeometry x="53.75" y="106" width="80" height="80" as="geometry" />
        </mxCell>
        <mxCell id="zriHwzO1Br6Wtj0x9han-157" value="" style="html=1;verticalLabelPosition=bottom;labelBackgroundColor=#ffffff;verticalAlign=top;shadow=0;dashed=0;strokeWidth=1;shape=mxgraph.ios7ui.iconGrid;fillColor=#dae8fc;gridSize=3,3;strokeColor=#6c8ebf;fontSize=11;" parent="1" vertex="1">
          <mxGeometry x="136.25" y="106" width="80" height="80" as="geometry" />
        </mxCell>
        <mxCell id="zriHwzO1Br6Wtj0x9han-158" value="" style="curved=1;endArrow=classic;html=1;rounded=0;fontSize=11;" parent="1" edge="1" source="zriHwzO1Br6Wtj0x9han-161">
          <mxGeometry width="50" height="50" relative="1" as="geometry">
            <mxPoint x="148" y="120" as="sourcePoint" />
            <mxPoint x="198" y="70" as="targetPoint" />
            <Array as="points">
              <mxPoint x="148" y="70" />
            </Array>
          </mxGeometry>
        </mxCell>
        <mxCell id="zriHwzO1Br6Wtj0x9han-159" value="" style="html=1;verticalLabelPosition=bottom;labelBackgroundColor=#ffffff;verticalAlign=top;shadow=0;dashed=0;strokeWidth=1;shape=mxgraph.ios7ui.iconGrid;fillColor=#dae8fc;gridSize=3,3;strokeColor=#6c8ebf;fontSize=11;" parent="1" vertex="1">
          <mxGeometry x="53.75" y="189" width="80" height="80" as="geometry" />
        </mxCell>
        <mxCell id="zriHwzO1Br6Wtj0x9han-160" value="" style="html=1;verticalLabelPosition=bottom;labelBackgroundColor=#ffffff;verticalAlign=top;shadow=0;dashed=0;strokeWidth=1;shape=mxgraph.ios7ui.iconGrid;fillColor=#dae8fc;gridSize=3,3;strokeColor=#6c8ebf;fontSize=11;" parent="1" vertex="1">
          <mxGeometry x="136.25" y="189" width="80" height="80" as="geometry" />
        </mxCell>
        <mxCell id="zriHwzO1Br6Wtj0x9han-161" value="&lt;div&gt;$$x_{i,j}$$&lt;/div&gt;" style="text;html=1;align=center;verticalAlign=middle;whiteSpace=wrap;rounded=0;fillColor=none;fontSize=11;" parent="1" vertex="1">
          <mxGeometry x="124" y="128.5" width="48.75" height="35" as="geometry" />
        </mxCell>
        <mxCell id="zriHwzO1Br6Wtj0x9han-162" value="" style="whiteSpace=wrap;html=1;aspect=fixed;fillColor=#f8cecc;strokeColor=none;fontSize=11;" parent="1" vertex="1">
          <mxGeometry x="191" y="161" width="25" height="25" as="geometry" />
        </mxCell>
        <mxCell id="zriHwzO1Br6Wtj0x9han-163" value="" style="whiteSpace=wrap;html=1;aspect=fixed;fillColor=#f8cecc;strokeColor=none;fontSize=11;" parent="1" vertex="1">
          <mxGeometry x="81" y="216.5" width="25" height="25" as="geometry" />
        </mxCell>
        <mxCell id="zriHwzO1Br6Wtj0x9han-164" value="" style="whiteSpace=wrap;html=1;aspect=fixed;fillColor=#f8cecc;strokeColor=none;fontSize=11;" parent="1" vertex="1">
          <mxGeometry x="108.75" y="106" width="25" height="25" as="geometry" />
        </mxCell>
        <mxCell id="zriHwzO1Br6Wtj0x9han-165" value="" style="whiteSpace=wrap;html=1;aspect=fixed;fillColor=#f8cecc;strokeColor=none;fontSize=11;" parent="1" vertex="1">
          <mxGeometry x="164" y="244" width="25" height="25" as="geometry" />
        </mxCell>
        <mxCell id="zriHwzO1Br6Wtj0x9han-166" value="" style="endArrow=classic;startArrow=classic;html=1;rounded=0;jumpSize=3;fontSize=11;" parent="1" edge="1">
          <mxGeometry width="50" height="50" relative="1" as="geometry">
            <mxPoint x="134.25" y="256.21000000000004" as="sourcePoint" />
            <mxPoint x="216.75" y="256.21000000000004" as="targetPoint" />
          </mxGeometry>
        </mxCell>
        <mxCell id="zriHwzO1Br6Wtj0x9han-167" value="&lt;div&gt;$$\Theta$$&lt;/div&gt;" style="text;html=1;align=center;verticalAlign=middle;whiteSpace=wrap;rounded=0;fontSize=11;" parent="1" vertex="1">
          <mxGeometry x="141.5" y="226" width="68" height="30" as="geometry" />
        </mxCell>
        <mxCell id="zriHwzO1Br6Wtj0x9han-168" value="" style="whiteSpace=wrap;html=1;aspect=fixed;fillColor=#dae8fc;strokeColor=none;fontSize=11;" parent="1" vertex="1">
          <mxGeometry x="344" y="106" width="25" height="25" as="geometry" />
        </mxCell>
        <mxCell id="zriHwzO1Br6Wtj0x9han-169" value="" style="whiteSpace=wrap;html=1;aspect=fixed;fillColor=#dae8fc;strokeColor=none;fontSize=11;" parent="1" vertex="1">
          <mxGeometry x="344" y="133.5" width="25" height="25" as="geometry" />
        </mxCell>
        <mxCell id="zriHwzO1Br6Wtj0x9han-170" value="" style="whiteSpace=wrap;html=1;aspect=fixed;fillColor=#dae8fc;strokeColor=none;fontSize=11;" parent="1" vertex="1">
          <mxGeometry x="344" y="161.5" width="25" height="25" as="geometry" />
        </mxCell>
        <mxCell id="zriHwzO1Br6Wtj0x9han-171" value="" style="whiteSpace=wrap;html=1;aspect=fixed;fillColor=#dae8fc;strokeColor=none;fontSize=11;" parent="1" vertex="1">
          <mxGeometry x="344" y="189" width="25" height="25" as="geometry" />
        </mxCell>
        <mxCell id="zriHwzO1Br6Wtj0x9han-172" value="" style="whiteSpace=wrap;html=1;aspect=fixed;fillColor=#f8cecc;strokeColor=none;fontSize=11;" parent="1" vertex="1">
          <mxGeometry x="344" y="215.25" width="25" height="25" as="geometry" />
        </mxCell>
        <mxCell id="zriHwzO1Br6Wtj0x9han-173" value="" style="whiteSpace=wrap;html=1;aspect=fixed;fillColor=#dae8fc;strokeColor=none;fontSize=11;" parent="1" vertex="1">
          <mxGeometry x="344" y="242.75" width="25" height="25" as="geometry" />
        </mxCell>
        <mxCell id="zriHwzO1Br6Wtj0x9han-174" value="&lt;font color=&quot;#5e5e5e&quot;&gt;$$T+1$$&lt;/font&gt;" style="text;html=1;align=center;verticalAlign=middle;whiteSpace=wrap;rounded=0;rotation=0;fontSize=11;" parent="1" vertex="1">
          <mxGeometry x="335.5" y="244" width="42" height="83.05" as="geometry" />
        </mxCell>
        <mxCell id="zriHwzO1Br6Wtj0x9han-175" value="&lt;font style=&quot;font-size: 12px;&quot;&gt;Next snapshot from real-time sources&lt;br&gt;&lt;/font&gt;" style="text;html=1;align=center;verticalAlign=middle;whiteSpace=wrap;rounded=0;fontSize=11;" parent="1" vertex="1">
          <mxGeometry x="290" y="92" width="147" height="30" as="geometry" />
        </mxCell>
        <mxCell id="zriHwzO1Br6Wtj0x9han-176" value="&lt;font color=&quot;#5e5e5e&quot;&gt;$$+$$&lt;/font&gt;" style="text;html=1;align=center;verticalAlign=middle;whiteSpace=wrap;rounded=0;rotation=0;fontSize=11;" parent="1" vertex="1">
          <mxGeometry x="262" y="142.95000000000005" width="42" height="83.05" as="geometry" />
        </mxCell>
        <mxCell id="zriHwzO1Br6Wtj0x9han-177" value="" style="shape=curlyBracket;whiteSpace=wrap;html=1;rounded=1;labelPosition=left;verticalLabelPosition=middle;align=right;verticalAlign=middle;fillColor=#f5f5f5;strokeColor=#666666;rotation=-360;fontColor=#333333;opacity=80;fontSize=11;" parent="1" vertex="1">
          <mxGeometry x="453.63" y="111.94000000000005" width="8" height="147.11" as="geometry" />
        </mxCell>
        <mxCell id="zriHwzO1Br6Wtj0x9han-178" value="&lt;font color=&quot;#5e5e5e&quot;&gt;$$N$$&lt;/font&gt;" style="text;html=1;align=center;verticalAlign=middle;whiteSpace=wrap;rounded=0;rotation=0;fontSize=11;" parent="1" vertex="1">
          <mxGeometry x="419.63" y="145.94000000000005" width="42" height="83.05" as="geometry" />
        </mxCell>
        <mxCell id="zriHwzO1Br6Wtj0x9han-179" value="" style="html=1;verticalLabelPosition=bottom;labelBackgroundColor=#ffffff;verticalAlign=top;shadow=0;dashed=0;strokeWidth=1;shape=mxgraph.ios7ui.iconGrid;fillColor=#dae8fc;gridSize=3,3;strokeColor=#6c8ebf;fontSize=11;" parent="1" vertex="1">
          <mxGeometry x="471.38" y="102.94000000000005" width="80" height="80" as="geometry" />
        </mxCell>
        <mxCell id="zriHwzO1Br6Wtj0x9han-180" value="" style="html=1;verticalLabelPosition=bottom;labelBackgroundColor=#ffffff;verticalAlign=top;shadow=0;dashed=0;strokeWidth=1;shape=mxgraph.ios7ui.iconGrid;fillColor=#dae8fc;gridSize=3,3;strokeColor=#6c8ebf;fontSize=11;" parent="1" vertex="1">
          <mxGeometry x="553.88" y="102.94000000000005" width="80" height="80" as="geometry" />
        </mxCell>
        <mxCell id="zriHwzO1Br6Wtj0x9han-181" value="" style="html=1;verticalLabelPosition=bottom;labelBackgroundColor=#ffffff;verticalAlign=top;shadow=0;dashed=0;strokeWidth=1;shape=mxgraph.ios7ui.iconGrid;fillColor=#dae8fc;gridSize=3,3;strokeColor=#6c8ebf;fontSize=11;" parent="1" vertex="1">
          <mxGeometry x="471.38" y="185.94000000000005" width="80" height="80" as="geometry" />
        </mxCell>
        <mxCell id="zriHwzO1Br6Wtj0x9han-182" value="" style="html=1;verticalLabelPosition=bottom;labelBackgroundColor=#ffffff;verticalAlign=top;shadow=0;dashed=0;strokeWidth=1;shape=mxgraph.ios7ui.iconGrid;fillColor=#dae8fc;gridSize=3,3;strokeColor=#6c8ebf;fontSize=11;" parent="1" vertex="1">
          <mxGeometry x="553.88" y="185.94000000000005" width="80" height="80" as="geometry" />
        </mxCell>
        <mxCell id="zriHwzO1Br6Wtj0x9han-183" value="" style="whiteSpace=wrap;html=1;aspect=fixed;fillColor=#f8cecc;strokeColor=none;fontSize=11;" parent="1" vertex="1">
          <mxGeometry x="608.63" y="157.94000000000005" width="25" height="25" as="geometry" />
        </mxCell>
        <mxCell id="zriHwzO1Br6Wtj0x9han-184" value="" style="whiteSpace=wrap;html=1;aspect=fixed;fillColor=#f8cecc;strokeColor=none;fontSize=11;" parent="1" vertex="1">
          <mxGeometry x="498.63" y="213.44000000000005" width="25" height="25" as="geometry" />
        </mxCell>
        <mxCell id="zriHwzO1Br6Wtj0x9han-185" value="" style="whiteSpace=wrap;html=1;aspect=fixed;fillColor=#f8cecc;strokeColor=none;fontSize=11;" parent="1" vertex="1">
          <mxGeometry x="526.38" y="102.94000000000005" width="25" height="25" as="geometry" />
        </mxCell>
        <mxCell id="zriHwzO1Br6Wtj0x9han-186" value="" style="whiteSpace=wrap;html=1;aspect=fixed;fillColor=#f8cecc;strokeColor=none;fontSize=11;" parent="1" vertex="1">
          <mxGeometry x="581.63" y="240.94000000000005" width="25" height="25" as="geometry" />
        </mxCell>
        <mxCell id="zriHwzO1Br6Wtj0x9han-187" value="&lt;font color=&quot;#5e5e5e&quot;&gt;$$=$$&lt;/font&gt;" style="text;html=1;align=center;verticalAlign=middle;whiteSpace=wrap;rounded=0;rotation=0;fontSize=11;" parent="1" vertex="1">
          <mxGeometry x="384" y="143.97000000000003" width="42" height="83.05" as="geometry" />
        </mxCell>
        <mxCell id="zriHwzO1Br6Wtj0x9han-188" value="" style="curved=1;endArrow=classic;html=1;rounded=0;fontSize=11;" parent="1" edge="1">
          <mxGeometry width="50" height="50" relative="1" as="geometry">
            <mxPoint x="361.5" y="232.94000000000005" as="sourcePoint" />
            <mxPoint x="620" y="230" as="targetPoint" />
            <Array as="points">
              <mxPoint x="361.5" y="182.94000000000005" />
            </Array>
          </mxGeometry>
        </mxCell>
        <mxCell id="zriHwzO1Br6Wtj0x9han-189" value="&lt;font style=&quot;font-size: 12px;&quot;&gt;&lt;i&gt;backfilled  &lt;br&gt;&lt;/i&gt;&lt;/font&gt;" style="edgeLabel;html=1;align=center;verticalAlign=middle;resizable=0;points=[];fontSize=11;" parent="zriHwzO1Br6Wtj0x9han-188" vertex="1" connectable="0">
          <mxGeometry x="-0.083" y="-11" relative="1" as="geometry">
            <mxPoint x="-38" y="1" as="offset" />
          </mxGeometry>
        </mxCell>
        <mxCell id="zriHwzO1Br6Wtj0x9han-190" value="&lt;font&gt;$$t_2$$&lt;/font&gt;" style="text;html=1;align=center;verticalAlign=middle;whiteSpace=wrap;rounded=0;fontSize=11;" parent="1" vertex="1">
          <mxGeometry x="86" y="266.13" width="74" height="29" as="geometry" />
        </mxCell>
        <mxCell id="zriHwzO1Br6Wtj0x9han-191" value="&lt;div&gt;&lt;font&gt;$$t_3$$&lt;/font&gt;&lt;/div&gt;" style="text;html=1;align=center;verticalAlign=middle;whiteSpace=wrap;rounded=0;fontSize=11;" parent="1" vertex="1">
          <mxGeometry x="116" y="266.13" width="74" height="29" as="geometry" />
        </mxCell>
        <mxCell id="zriHwzO1Br6Wtj0x9han-192" value="&lt;div&gt;&lt;font&gt;$$t_4$$&lt;/font&gt;&lt;/div&gt;" style="text;html=1;align=center;verticalAlign=middle;whiteSpace=wrap;rounded=0;fontSize=11;" parent="1" vertex="1">
          <mxGeometry x="141" y="267.13" width="74" height="29" as="geometry" />
        </mxCell>
        <mxCell id="zriHwzO1Br6Wtj0x9han-193" value="&lt;div&gt;&lt;font&gt;$$t_5$$&lt;/font&gt;&lt;/div&gt;" style="text;html=1;align=center;verticalAlign=middle;whiteSpace=wrap;rounded=0;fontSize=11;" parent="1" vertex="1">
          <mxGeometry x="166" y="268.13" width="74" height="29" as="geometry" />
        </mxCell>
        <mxCell id="zriHwzO1Br6Wtj0x9han-194" value="&lt;font&gt;$$t_1$$&lt;/font&gt;" style="text;html=1;align=center;verticalAlign=middle;whiteSpace=wrap;rounded=0;fontSize=11;" parent="1" vertex="1">
          <mxGeometry x="453.63" y="260.13" width="60" height="30" as="geometry" />
        </mxCell>
        <mxCell id="zriHwzO1Br6Wtj0x9han-195" value="&lt;font&gt;$$t_2$$&lt;/font&gt;" style="text;html=1;align=center;verticalAlign=middle;whiteSpace=wrap;rounded=0;fontSize=11;" parent="1" vertex="1">
          <mxGeometry x="474.63" y="260.63" width="74" height="29" as="geometry" />
        </mxCell>
        <mxCell id="zriHwzO1Br6Wtj0x9han-196" value="&lt;div&gt;&lt;font&gt;$$t_3$$&lt;/font&gt;&lt;/div&gt;" style="text;html=1;align=center;verticalAlign=middle;whiteSpace=wrap;rounded=0;fontSize=11;" parent="1" vertex="1">
          <mxGeometry x="503.01" y="260.13" width="74" height="29" as="geometry" />
        </mxCell>
        <mxCell id="zriHwzO1Br6Wtj0x9han-197" value="&lt;div&gt;&lt;font&gt;$$t_4$$&lt;/font&gt;&lt;/div&gt;" style="text;html=1;align=center;verticalAlign=middle;whiteSpace=wrap;rounded=0;fontSize=11;" parent="1" vertex="1">
          <mxGeometry x="528" y="260.13" width="74" height="29" as="geometry" />
        </mxCell>
        <mxCell id="zriHwzO1Br6Wtj0x9han-198" value="&lt;div&gt;&lt;font&gt;$$t_5$$&lt;/font&gt;&lt;/div&gt;" style="text;html=1;align=center;verticalAlign=middle;whiteSpace=wrap;rounded=0;fontSize=11;" parent="1" vertex="1">
          <mxGeometry x="559" y="260.13" width="74" height="29" as="geometry" />
        </mxCell>
        <mxCell id="zriHwzO1Br6Wtj0x9han-199" value="&lt;div&gt;&lt;font&gt;$$t_6$$&lt;/font&gt;&lt;/div&gt;" style="text;html=1;align=center;verticalAlign=middle;whiteSpace=wrap;rounded=0;fontSize=11;" parent="1" vertex="1">
          <mxGeometry x="585" y="260.13" width="74" height="29" as="geometry" />
        </mxCell>
        <mxCell id="zriHwzO1Br6Wtj0x9han-200" style="edgeStyle=orthogonalEdgeStyle;rounded=0;orthogonalLoop=1;jettySize=auto;html=1;entryX=0.47;entryY=0.129;entryDx=0;entryDy=0;entryPerimeter=0;fontSize=11;" parent="1" source="zriHwzO1Br6Wtj0x9han-201" target="zriHwzO1Br6Wtj0x9han-175" edge="1">
          <mxGeometry relative="1" as="geometry">
            <mxPoint x="356.5" y="50" as="targetPoint" />
          </mxGeometry>
        </mxCell>
        <mxCell id="zriHwzO1Br6Wtj0x9han-201" value="&lt;font style=&quot;font-size: 12px;&quot;&gt;Real-time traffic data source&lt;br&gt;&lt;/font&gt;" style="rounded=1;whiteSpace=wrap;html=1;fillColor=#d5e8d4;strokeColor=none;fontSize=11;" parent="1" vertex="1">
          <mxGeometry x="316.5" y="14" width="86" height="38" as="geometry" />
        </mxCell>
        <mxCell id="zriHwzO1Br6Wtj0x9han-151" value="" style="shape=curlyBracket;whiteSpace=wrap;html=1;rounded=1;labelPosition=left;verticalLabelPosition=middle;align=right;verticalAlign=middle;fillColor=#f5f5f5;strokeColor=#666666;rotation=-360;fontColor=#333333;opacity=80;fontSize=11;" parent="1" vertex="1">
          <mxGeometry x="36" y="115" width="8" height="147.11" as="geometry" />
        </mxCell>
        <mxCell id="zriHwzO1Br6Wtj0x9han-152" value="&lt;font color=&quot;#5e5e5e&quot;&gt;$$N$$&lt;/font&gt;" style="text;html=1;align=center;verticalAlign=middle;whiteSpace=wrap;rounded=0;rotation=0;fontSize=11;" parent="1" vertex="1">
          <mxGeometry x="4" y="131" width="42" height="83.05" as="geometry" />
        </mxCell>
        <mxCell id="zriHwzO1Br6Wtj0x9han-153" value="&lt;font&gt;$$t_0$$&lt;/font&gt;" style="text;html=1;align=center;verticalAlign=middle;whiteSpace=wrap;rounded=0;fontSize=11;" parent="1" vertex="1">
          <mxGeometry x="36" y="266.13" width="60" height="30" as="geometry" />
        </mxCell>
        <mxCell id="zriHwzO1Br6Wtj0x9han-154" value="&lt;font&gt;$$t_1$$&lt;/font&gt;" style="text;html=1;align=center;verticalAlign=middle;whiteSpace=wrap;rounded=0;fontSize=11;" parent="1" vertex="1">
          <mxGeometry x="64" y="266.13" width="60" height="30" as="geometry" />
        </mxCell>
        <mxCell id="zriHwzO1Br6Wtj0x9han-143" value="" style="shape=curlyBracket;whiteSpace=wrap;html=1;rounded=1;labelPosition=left;verticalLabelPosition=middle;align=right;verticalAlign=middle;fillColor=#f5f5f5;strokeColor=#666666;rotation=-90;fontColor=#333333;opacity=80;fontSize=11;" parent="1" vertex="1">
          <mxGeometry x="128" y="223.00248069199876" width="8" height="147.11" as="geometry" />
        </mxCell>
        <mxCell id="zriHwzO1Br6Wtj0x9han-145" value="" style="whiteSpace=wrap;html=1;aspect=fixed;fillColor=#f8cecc;strokeColor=none;fontSize=11;" parent="1" vertex="1">
          <mxGeometry x="263.09000000000003" y="308.09000000000003" width="28.91" height="14.91" as="geometry" />
        </mxCell>
        <mxCell id="zriHwzO1Br6Wtj0x9han-146" value="" style="whiteSpace=wrap;html=1;aspect=fixed;fillColor=#dae8fc;strokeColor=none;fontSize=11;" parent="1" vertex="1">
          <mxGeometry x="374" y="308.63" width="28.91" height="14.91" as="geometry" />
        </mxCell>
        <mxCell id="zriHwzO1Br6Wtj0x9han-147" value="&lt;font&gt;&lt;i&gt;available data&lt;br&gt;&lt;/i&gt;&lt;/font&gt;" style="text;html=1;align=center;verticalAlign=middle;whiteSpace=wrap;rounded=0;fontSize=11;" parent="1" vertex="1">
          <mxGeometry x="403.90999999999997" y="301.0899999999999" width="74" height="30" as="geometry" />
        </mxCell>
        <mxCell id="zriHwzO1Br6Wtj0x9han-148" value="&lt;font style=&quot;font-size: 12px;&quot;&gt;&lt;i&gt;missing data&lt;br&gt;&lt;/i&gt;&lt;/font&gt;" style="text;html=1;align=center;verticalAlign=middle;whiteSpace=wrap;rounded=0;fontSize=11;" parent="1" vertex="1">
          <mxGeometry x="292" y="301.0899999999999" width="74" height="30" as="geometry" />
        </mxCell>
        <mxCell id="zriHwzO1Br6Wtj0x9han-149" value="&lt;font&gt;timesteps range to backfill missing&lt;/font&gt;" style="text;html=1;align=center;verticalAlign=middle;whiteSpace=wrap;rounded=0;fontSize=11;" parent="1" vertex="1">
          <mxGeometry x="215" y="247" width="84" height="30" as="geometry" />
        </mxCell>
        <mxCell id="XUJiECWB4QVf_dTVBmZX-5" value="&lt;font style=&quot;color: light-dark(rgb(94, 92, 100), rgb(237, 237, 237));&quot;&gt;$$T$$&lt;/font&gt;" style="text;html=1;align=center;verticalAlign=middle;whiteSpace=wrap;rounded=0;fontSize=11;" parent="1" vertex="1">
          <mxGeometry x="104" y="301" width="60" height="30" as="geometry" />
        </mxCell>
      </root>
    </mxGraphModel>
  </diagram>
</mxfile>
